<svg width="218" height="42" viewBox="0 0 218 42" fill="none" xmlns="http://www.w3.org/2000/svg">
<rect width="218" height="42" fill="#E5E5E5"/>
<rect width="218" height="42" fill="#E50606"/>
<path d="M32.065 33.035H36.685V8.535H31.4L23.735 19.07L16.07 8.535H10.75V33.035H15.37V15.22L23.175 25.895H24.085L32.065 15.255V33.035ZM49.3974 8.01C40.9274 8.01 36.7974 14.485 36.7974 20.925C36.7974 27.365 40.7874 33.56 49.3974 33.56C58.0074 33.56 61.8924 27.225 61.9624 20.89C62.0324 14.485 57.8324 8.01 49.3974 8.01ZM49.3974 12.21C55.1724 12.21 57.4824 16.83 57.4124 20.96C57.3424 24.985 55.1724 29.325 49.3974 29.325C43.6224 29.325 41.4524 25.02 41.3474 20.995C41.2424 16.865 43.6224 12.21 49.3974 12.21ZM84.5699 8.5H79.3899L71.9699 27.575L64.5849 8.5H59.4049L69.5899 33.105H74.3849L84.5699 8.5ZM88.8733 33V8.5H84.2883V33H88.8733ZM108.328 28.45H94.5734V22.92H107.838V18.615H94.5734V12.98H108.328V8.5H89.9884C89.9884 16.655 89.9884 24.845 89.9884 33H108.328V28.45ZM130.099 33.035H134.719V8.535H129.434L121.769 19.07L114.104 8.535H108.784V33.035H113.404V15.22L121.209 25.895H122.119L130.099 15.255V33.035ZM155.377 33H160.417L149.427 8.5H144.387L133.397 33H138.402L140.502 28.38H153.312L155.377 33ZM151.457 24.075H142.357L146.907 13.645L151.457 24.075ZM175.458 23.69L163.453 8.5H159.708V33H164.328V16.48L177.208 33.035V33H180.078V8.465H175.458V23.69ZM185.78 33V8.5H181.195V33H185.78ZM206.425 33H211.465L200.475 8.5H195.435L184.445 33H189.45L191.55 28.38H204.36L206.425 33ZM202.505 24.075H193.405L197.955 13.645L202.505 24.075Z" fill="white"/>
</svg>
