<svg width="137" height="168" viewBox="0 0 137 168" fill="none" xmlns="http://www.w3.org/2000/svg">
<path fill-rule="evenodd" clip-rule="evenodd" d="M68.5 137C106.332 137 137 106.332 137 68.5C137 30.6685 106.332 0 68.5 0C30.6685 0 0 30.6685 0 68.5C0 106.332 30.6685 137 68.5 137ZM68.5 132C103.57 132 132 103.57 132 68.5C132 33.4299 103.57 5 68.5 5C33.4299 5 5 33.4299 5 68.5C5 103.57 33.4299 132 68.5 132Z" fill="#FBFBFB"/>
<path d="M25.05 163H26.828C26.912 163 26.968 162.958 26.968 162.86V159.682C26.968 159.626 26.996 159.598 27.052 159.598H28.746C29.25 159.598 29.712 159.528 30.132 159.374C30.538 159.234 30.888 159.024 31.168 158.744C31.448 158.478 31.672 158.156 31.826 157.778C31.98 157.414 32.064 156.994 32.064 156.546C32.064 156.098 31.98 155.678 31.84 155.3C31.686 154.936 31.462 154.614 31.182 154.334C30.888 154.068 30.538 153.858 30.132 153.704C29.712 153.564 29.25 153.48 28.746 153.48H25.05C24.952 153.48 24.91 153.536 24.91 153.62V162.86C24.91 162.958 24.952 163 25.05 163ZM28.62 157.82H27.052C26.996 157.82 26.968 157.792 26.968 157.736V155.342C26.968 155.286 26.996 155.258 27.052 155.258H28.62C29.054 155.258 29.39 155.384 29.642 155.608C29.88 155.846 30.006 156.154 30.006 156.546C30.006 156.938 29.88 157.26 29.642 157.484C29.39 157.708 29.054 157.82 28.62 157.82ZM33.3866 153.62V162.86C33.3866 162.958 33.4286 163 33.5266 163H39.7286C39.8126 163 39.8686 162.958 39.8686 162.86V161.306C39.8686 161.222 39.8126 161.166 39.7286 161.166H35.5286C35.4726 161.166 35.4446 161.138 35.4446 161.082V153.62C35.4446 153.536 35.3886 153.48 35.3046 153.48H33.5266C33.4286 153.48 33.3866 153.536 33.3866 153.62ZM43.6458 153.62L40.3698 162.86C40.3418 162.958 40.3698 163 40.4678 163H42.3018C42.3858 163 42.4558 162.958 42.4838 162.86L43.0158 161.194H46.3478L46.8938 162.86C46.9218 162.958 46.9778 163 47.0758 163H48.8958C48.9798 163 49.0218 162.958 48.9938 162.86L45.7738 153.62C45.7458 153.536 45.6758 153.48 45.5918 153.48H43.8278C43.7298 153.48 43.6738 153.536 43.6458 153.62ZM45.7878 159.444H43.5898L44.6678 156.112H44.7098L45.7878 159.444ZM51.4706 163H53.2486C53.3326 163 53.3886 162.958 53.3886 162.86V159.206L56.2026 153.62C56.2166 153.592 56.2166 153.55 56.2026 153.522C56.1746 153.494 56.1466 153.48 56.1046 153.48H54.3406C54.2286 153.48 54.1586 153.536 54.1306 153.62L52.4086 157.092H52.3666L50.6446 153.62C50.6026 153.536 50.5326 153.48 50.4346 153.48H48.6146C48.5026 153.48 48.4746 153.536 48.5166 153.62L51.3306 159.206V162.86C51.3306 162.958 51.3726 163 51.4706 163ZM62.1467 163H63.9247C64.0087 163 64.0647 162.958 64.0647 162.86V155.398C64.0647 155.342 64.0927 155.314 64.1487 155.314H66.5567C66.6407 155.314 66.6967 155.272 66.6967 155.174V153.62C66.6967 153.536 66.6407 153.48 66.5567 153.48H59.5147C59.4167 153.48 59.3747 153.536 59.3747 153.62V155.174C59.3747 155.272 59.4167 155.314 59.5147 155.314H61.9227C61.9787 155.314 62.0067 155.342 62.0067 155.398V162.86C62.0067 162.958 62.0487 163 62.1467 163ZM73.1037 163H75.0917C75.1337 163 75.1617 162.986 75.1897 162.958C75.2037 162.93 75.2037 162.888 75.1897 162.832L73.3137 159.08C73.8317 158.856 74.2517 158.506 74.5597 158.044C74.8537 157.596 75.0077 157.05 75.0077 156.434C75.0077 156.014 74.9237 155.608 74.7697 155.244C74.6157 154.88 74.3917 154.572 74.1117 154.306C73.8317 154.054 73.4817 153.844 73.0897 153.704C72.6977 153.564 72.2497 153.48 71.7737 153.48H67.9797C67.8817 153.48 67.8397 153.536 67.8397 153.62V162.86C67.8397 162.958 67.8817 163 67.9797 163H69.7577C69.8417 163 69.8977 162.958 69.8977 162.86V159.458C69.8977 159.402 69.9257 159.374 69.9817 159.374H71.2557L72.8937 162.86C72.9217 162.958 72.9917 163 73.1037 163ZM71.6617 157.624H69.9817C69.9257 157.624 69.8977 157.596 69.8977 157.54V155.342C69.8977 155.286 69.9257 155.258 69.9817 155.258H71.6617C72.0537 155.258 72.3617 155.37 72.5997 155.58C72.8237 155.804 72.9497 156.084 72.9497 156.434C72.9497 156.798 72.8237 157.092 72.5997 157.302C72.3617 157.526 72.0537 157.624 71.6617 157.624ZM79.138 153.62L75.862 162.86C75.834 162.958 75.862 163 75.96 163H77.794C77.878 163 77.948 162.958 77.976 162.86L78.508 161.194H81.84L82.386 162.86C82.414 162.958 82.47 163 82.568 163H84.388C84.472 163 84.514 162.958 84.486 162.86L81.266 153.62C81.238 153.536 81.168 153.48 81.084 153.48H79.32C79.222 153.48 79.166 153.536 79.138 153.62ZM81.28 159.444H79.082L80.16 156.112H80.202L81.28 159.444ZM85.5858 153.62V162.86C85.5858 162.958 85.6278 163 85.7258 163H87.5038C87.5878 163 87.6438 162.958 87.6438 162.86V153.62C87.6438 153.536 87.5878 153.48 87.5038 153.48H85.7258C85.6278 153.48 85.5858 153.536 85.5858 153.62ZM89.4686 153.62V162.86C89.4686 162.958 89.5106 163 89.6086 163H95.8106C95.8946 163 95.9506 162.958 95.9506 162.86V161.306C95.9506 161.222 95.8946 161.166 95.8106 161.166H91.6106C91.5546 161.166 91.5266 161.138 91.5266 161.082V153.62C91.5266 153.536 91.4706 153.48 91.3866 153.48H89.6086C89.5106 153.48 89.4686 153.536 89.4686 153.62ZM97.1659 153.62V162.86C97.1659 162.958 97.2079 163 97.3059 163H103.41C103.494 163 103.55 162.958 103.55 162.86V161.362C103.55 161.278 103.494 161.222 103.41 161.222H99.3079C99.2519 161.222 99.2239 161.194 99.2239 161.138V159.164C99.2239 159.108 99.2519 159.08 99.3079 159.08H102.724C102.808 159.08 102.864 159.038 102.864 158.94V157.456C102.864 157.372 102.808 157.316 102.724 157.316H99.3079C99.2519 157.316 99.2239 157.288 99.2239 157.232V155.342C99.2239 155.286 99.2519 155.258 99.3079 155.258H103.41C103.494 155.258 103.55 155.216 103.55 155.118V153.62C103.55 153.536 103.494 153.48 103.41 153.48H97.3059C97.2079 153.48 97.1659 153.536 97.1659 153.62ZM110.346 163H112.334C112.376 163 112.404 162.986 112.432 162.958C112.446 162.93 112.446 162.888 112.432 162.832L110.556 159.08C111.074 158.856 111.494 158.506 111.802 158.044C112.096 157.596 112.25 157.05 112.25 156.434C112.25 156.014 112.166 155.608 112.012 155.244C111.858 154.88 111.634 154.572 111.354 154.306C111.074 154.054 110.724 153.844 110.332 153.704C109.94 153.564 109.492 153.48 109.016 153.48H105.222C105.124 153.48 105.082 153.536 105.082 153.62V162.86C105.082 162.958 105.124 163 105.222 163H107C107.084 163 107.14 162.958 107.14 162.86V159.458C107.14 159.402 107.168 159.374 107.224 159.374H108.498L110.136 162.86C110.164 162.958 110.234 163 110.346 163ZM108.904 157.624H107.224C107.168 157.624 107.14 157.596 107.14 157.54V155.342C107.14 155.286 107.168 155.258 107.224 155.258H108.904C109.296 155.258 109.604 155.37 109.842 155.58C110.066 155.804 110.192 156.084 110.192 156.434C110.192 156.798 110.066 157.092 109.842 157.302C109.604 157.526 109.296 157.624 108.904 157.624Z" fill="#FBFBFB"/>
<path d="M105.259 62.0614C109.329 64.2466 109.506 70.0174 105.579 72.4488L55.5089 103.448C51.5819 105.88 46.4954 103.148 46.3534 98.5316L44.5419 39.6698C44.3998 35.0531 49.3087 32.014 53.3778 34.1992L105.259 62.0614Z" fill="#FBFBFB"/>
</svg>
